<svg xmlns="http://www.w3.org/2000/svg" class="new_p_icn" viewBox="0 0 65 64" style="display:inline-block;vertical-align:middle"><g><g id="(3)-Homepage" transform="translate(-743.000000, -177.000000)"><g id="icn_new_contract_review_project" transform="translate(743.000000, 177.000000)"><g id="Group-6" transform="translate(16.000000, 0.000000)"><rect id="Rectangle-7" width="40" height="53" x="0" y="0" fill="#6DB5F4" rx="4"/><rect id="Rectangle-8" width="13" height="2" x="6" y="8" fill="#FFF" rx="1"/><rect id="Rectangle-8" width="13" height="2" x="21" y="8" fill="#FFF" rx="1"/><rect id="Rectangle-8" width="21" height="2" x="6" y="12" fill="#FFF" rx="1"/><rect id="Rectangle-8" width="5" height="2" x="29" y="12" fill="#FFF" rx="1"/><rect id="Rectangle-8" width="10" height="2" x="6" y="16" fill="#FFF" rx="1"/><rect id="Rectangle-8" width="16" height="2" x="18" y="16" fill="#FFF" rx="1"/><rect id="Rectangle-8" width="16" height="2" x="6" y="20" fill="#FFF" rx="1"/><rect id="Rectangle-8" width="10" height="2" x="24" y="20" fill="#FFF" rx="1"/><rect id="Rectangle-8" width="21" height="2" x="6" y="32" fill="#FFF" rx="1"/><rect id="Rectangle-8" width="21" height="2" x="6" y="44" fill="#FFF" rx="1"/><rect id="Rectangle-8" width="5" height="2" x="29" y="32" fill="#FFF" rx="1"/><rect id="Rectangle-8" width="10" height="2" x="6" y="36" fill="#FFF" rx="1"/><rect id="Rectangle-8" width="16" height="2" x="18" y="36" fill="#FFF" rx="1"/><rect id="Rectangle-8" width="16" height="2" x="6" y="40" fill="#FFF" rx="1"/><rect id="Rectangle-8" width="10" height="2" x="24" y="40" fill="#FFF" rx="1"/><rect id="Rectangle-8" width="12" height="2" x="6" y="24" fill="#FFF" rx="1"/><rect id="Rectangle-8" width="14" height="2" x="20" y="24" fill="#FFF" rx="1"/><rect id="Rectangle-8" width="14" height="2" x="6" y="28" fill="#FFF" rx="1"/><rect id="Rectangle-8" width="12" height="2" x="22" y="28" fill="#FFF" rx="1"/></g><g id="Group-6" transform="translate(0.000000, 11.000000)"><rect id="Rectangle-7" width="40" height="53" x="0" y="0" fill="#E2F0FD" rx="4"/><rect id="Rectangle-8" width="13" height="2" x="6" y="8" fill="#1589EE" rx="1"/><rect id="Rectangle-8" width="13" height="2" x="21" y="8" fill="#1589EE" rx="1"/><rect id="Rectangle-8" width="21" height="2" x="6" y="12" fill="#1589EE" rx="1"/><rect id="Rectangle-8" width="5" height="2" x="29" y="12" fill="#1589EE" rx="1"/><rect id="Rectangle-8" width="10" height="2" x="6" y="16" fill="#1589EE" rx="1"/><rect id="Rectangle-8" width="16" height="2" x="18" y="16" fill="#1589EE" rx="1"/><rect id="Rectangle-8" width="16" height="2" x="6" y="20" fill="#1589EE" rx="1"/><rect id="Rectangle-8" width="10" height="2" x="24" y="20" fill="#1589EE" rx="1"/><rect id="Rectangle-8" width="21" height="2" x="6" y="32" fill="#1589EE" rx="1"/><rect id="Rectangle-8" width="21" height="2" x="6" y="44" fill="#1589EE" rx="1"/><rect id="Rectangle-8" width="5" height="2" x="29" y="32" fill="#1589EE" rx="1"/><rect id="Rectangle-8" width="10" height="2" x="6" y="36" fill="#1589EE" rx="1"/><rect id="Rectangle-8" width="16" height="2" x="18" y="36" fill="#1589EE" rx="1"/><rect id="Rectangle-8" width="16" height="2" x="6" y="40" fill="#1589EE" rx="1"/><rect id="Rectangle-8" width="10" height="2" x="24" y="40" fill="#1589EE" rx="1"/><rect id="Rectangle-8" width="12" height="2" x="6" y="24" fill="#1589EE" rx="1"/><rect id="Rectangle-8" width="14" height="2" x="20" y="24" fill="#1589EE" rx="1"/><rect id="Rectangle-8" width="14" height="2" x="6" y="28" fill="#1589EE" rx="1"/><rect id="Rectangle-8" width="12" height="2" x="22" y="28" fill="#1589EE" rx="1"/></g><g id="Group" transform="translate(26.000000, 38.000000)"><path id="Combined-Shape" fill="#1589EE" d="M0.842507849,10.5 C4.71241653,4.20090141 11.6662025,0 19.6011616,0 C27.5361207,0 34.4899067,4.20090141 38.3598154,10.5 C34.4899067,16.7990986 27.5361207,21 19.6011616,21 C11.6662025,21 4.71241653,16.7990986 0.842507849,10.5 Z"/><circle id="Oval" cx="19.5" cy="10.5" r="8.5" fill="#FFF"/><circle id="Oval" cx="19.5" cy="10.5" r="4.5" fill="#1589EE"/></g></g></g></g></svg>